<svg width="110" height="110" viewBox="0 0 110 110" fill="none" xmlns="http://www.w3.org/2000/svg">
<rect width="110" height="110" rx="20" fill="white"/>
<path d="M62.9031 61.7974C65.6365 59.064 69.1192 57.2025 72.9105 56.4483C76.7019 55.6942 80.6318 56.0812 84.2032 57.5606C87.7746 59.0399 90.8272 61.545 92.9748 64.7592C95.1224 67.9734 96.2688 71.7523 96.2688 75.6179C96.2688 79.4836 95.1224 83.2624 92.9748 86.4766C90.8272 89.6908 87.7746 92.1959 84.2032 93.6753C80.6318 95.1546 76.7019 95.5417 72.9105 94.7875C69.1192 94.0333 65.6366 92.1719 62.9031 89.4384L69.1491 83.1924C70.6472 84.6905 72.5559 85.7107 74.6338 86.1241C76.7117 86.5374 78.8656 86.3253 80.8229 85.5145C82.7803 84.7037 84.4532 83.3307 85.6303 81.5692C86.8073 79.8076 87.4356 77.7365 87.4356 75.6179C87.4356 73.4993 86.8073 71.4282 85.6303 69.6667C84.4532 67.9051 82.7803 66.5321 80.8229 65.7213C78.8655 64.9106 76.7117 64.6984 74.6338 65.1118C72.5559 65.5251 70.0676 66.795 68.5695 68.2931L62.9031 61.7974Z" fill="url(#paint0_linear_9_12)"/>
<path d="M46.5949 20.0595C43.8615 17.3261 40.3789 15.4646 36.5875 14.7104C32.7961 13.9563 28.8662 14.3433 25.2948 15.8226C21.7234 17.302 18.6709 19.8071 16.5232 23.0213C14.3756 26.2355 13.2293 30.0143 13.2293 33.88C13.2293 37.7457 14.3756 41.5245 16.5232 44.7387C18.6709 47.9529 21.7234 50.458 25.2948 51.9374C28.8662 53.4167 32.7961 53.8037 36.5875 53.0496C40.3789 52.2954 44.0421 50.0618 46.7756 47.3283L40.5139 41.0667C39.0158 42.5648 36.9422 43.9728 34.8642 44.3861C32.7863 44.7995 30.6325 44.5873 28.6751 43.7766C26.7178 42.9658 25.0448 41.5928 23.8678 39.8313C22.6907 38.0697 22.0625 35.9986 22.0625 33.88C22.0625 31.7614 22.6907 29.6903 23.8678 27.9288C25.0448 26.1672 26.7178 24.7942 28.6751 23.9834C30.6325 23.1727 32.7863 22.9605 34.8642 23.3739C36.9422 23.7872 38.8509 24.8074 40.3489 26.3055L46.5949 20.0595Z" fill="url(#paint1_linear_9_12)"/>
<path d="M68.9841 40.2374C76.6169 47.8703 76.6169 60.2456 68.9841 67.8784C61.3512 75.5113 48.9759 75.5113 41.3431 67.8784C33.7102 60.2456 33.7102 47.8703 41.3431 40.2374C48.9759 32.6046 61.3512 32.6046 68.9841 40.2374ZM47.5891 61.6324C51.7724 65.8157 58.5548 65.8157 62.7381 61.6324C66.9214 57.4491 66.9214 50.6667 62.7381 46.4834C58.5548 42.3001 51.7724 42.3001 47.5891 46.4834C43.4058 50.6667 43.4058 57.4491 47.5891 61.6324Z" fill="url(#paint2_linear_9_12)"/>
<defs>
<linearGradient id="paint0_linear_9_12" x1="90.5441" y1="61.7974" x2="62.9031" y2="89.4384" gradientUnits="userSpaceOnUse">
<stop stop-color="#089A00"/>
<stop offset="1" stop-color="#FFE524"/>
</linearGradient>
<linearGradient id="paint1_linear_9_12" x1="18.9539" y1="20.0595" x2="46.4992" y2="47.6047" gradientUnits="userSpaceOnUse">
<stop stop-color="#089A00"/>
<stop offset="1" stop-color="#FFE524"/>
</linearGradient>
<linearGradient id="paint2_linear_9_12" x1="41.3431" y1="40.2374" x2="68.9841" y2="67.8784" gradientUnits="userSpaceOnUse">
<stop stop-color="#089A00"/>
<stop offset="1" stop-color="#FFE524"/>
</linearGradient>
</defs>
</svg>
